<?xml version="1.0" standalone="no"?>
<!DOCTYPE svg PUBLIC "-//W3C//DTD SVG 20010904//EN"
 "http://www.w3.org/TR/2001/REC-SVG-20010904/DTD/svg10.dtd">
<svg version="1.0" xmlns="http://www.w3.org/2000/svg"
 width="387.000000pt" height="387.000000pt" viewBox="0 0 387.000000 387.000000"
 preserveAspectRatio="xMidYMid meet">
<metadata>
Created by potrace 1.14, written by Peter Selinger 2001-2017
</metadata>
<g transform="translate(0.000000,387.000000) scale(0.100000,-0.100000)"
fill="#000000" stroke="none">
<path d="M259 3206 c-82 -29 -153 -111 -164 -190 -3 -22 -5 -644 -3 -1381 l3
-1340 23 -47 c22 -45 87 -107 115 -112 6 -1 18 -5 26 -10 7 -5 43 -11 79 -14
54 -4 64 -3 57 9 -7 11 -6 12 6 2 20 -16 838 -15 858 1 11 8 13 8 8 0 -5 -8
120 -11 453 -11 329 0 457 3 453 11 -5 7 -2 7 8 0 10 -8 76 -11 214 -10 199 2
200 2 248 30 78 46 127 130 129 221 0 33 4 41 19 41 11 0 19 -7 19 -15 0 -8 3
-11 7 -8 3 4 12 2 20 -4 7 -6 13 -7 13 -2 0 11 29 11 48 -1 7 -4 12 -2 12 5 0
8 4 8 13 1 8 -7 18 -7 27 -2 8 5 18 6 24 3 5 -3 6 -1 2 5 -3 6 2 16 13 21 26
14 34 14 25 -1 -4 -8 -3 -10 2 -5 9 8 10 12 13 39 0 6 4 8 8 5 8 -8 35 42 28
53 -3 5 -1 10 5 12 5 1 11 17 13 33 2 17 5 35 8 40 8 16 -2 254 -11 275 -1 3
-1 13 0 24 1 10 -2 16 -7 13 -4 -3 -9 11 -10 31 -6 121 -9 148 -15 152 -4 3
-10 28 -12 55 -3 28 -8 61 -11 75 -3 14 -7 40 -10 58 -2 18 -7 37 -10 42 -3 6
0 10 7 10 8 0 9 3 3 8 -6 4 -10 14 -10 22 1 8 -1 20 -4 25 -3 6 -6 19 -7 30
-1 18 -13 98 -20 132 -1 7 -15 36 -31 66 -21 39 -27 60 -22 80 4 14 4 28 1 32
-12 12 -10 35 4 35 8 0 14 5 14 11 0 5 5 7 10 4 6 -4 8 -10 5 -15 -3 -5 -1
-11 4 -15 6 -3 8 3 6 14 -2 14 5 23 26 31 16 7 27 15 25 18 -3 3 2 12 12 21
23 22 62 78 62 90 0 6 8 15 18 20 9 6 14 11 9 11 -11 0 44 80 55 80 5 0 7 4 4
9 -3 5 1 12 10 15 8 3 12 10 9 16 -3 6 1 13 9 16 8 3 18 15 22 26 3 12 11 17
20 14 9 -3 12 -1 9 4 -3 6 3 23 14 38 24 34 22 55 -7 83 l-23 20 -34 -21 c-19
-12 -35 -28 -35 -36 0 -9 -4 -12 -10 -9 -5 3 -12 -6 -16 -20 -3 -14 -10 -25
-15 -25 -4 0 -15 -12 -23 -27 -12 -22 -15 -24 -16 -9 0 10 8 26 18 35 10 9 24
31 31 49 8 17 18 32 23 32 5 0 6 5 3 10 -3 6 -1 10 5 10 6 0 15 12 20 26 6 15
14 22 22 18 6 -4 8 -3 5 4 -11 17 3 41 21 35 15 -4 15 -3 2 6 -11 8 -12 13 -3
19 6 4 14 20 17 35 4 21 -1 31 -21 44 -29 19 -56 26 -47 12 3 -5 -4 -9 -15 -9
-11 0 -22 -8 -26 -19 -3 -10 -17 -31 -30 -47 -14 -16 -25 -35 -25 -41 0 -7 -4
-13 -10 -13 -5 0 -10 -6 -10 -14 0 -17 -18 -31 -27 -22 -3 3 6 24 21 46 14 22
26 44 26 50 0 5 5 10 11 10 5 0 7 5 4 10 -3 6 1 13 10 16 10 4 15 14 12 25 -3
11 -2 17 2 14 8 -4 33 39 36 60 6 47 -57 85 -89 54 -20 -20 -42 -53 -52 -81
-3 -10 -9 -18 -13 -18 -4 0 -15 -18 -25 -40 -10 -22 -22 -40 -27 -40 -6 0 -7
-4 -4 -10 3 -5 1 -10 -5 -10 -6 0 -8 -4 -5 -10 3 -5 1 -10 -4 -10 -6 0 -11 -5
-11 -10 0 -14 -52 -92 -57 -86 -4 4 86 186 97 196 3 3 5 12 5 20 0 8 5 14 10
13 13 -2 13 56 0 78 -6 9 -20 20 -32 23 -18 6 -29 0 -52 -25 -17 -18 -28 -36
-25 -40 2 -4 1 -9 -3 -11 -10 -4 -73 -131 -73 -146 0 -7 -5 -12 -11 -12 -5 0
-8 -4 -4 -9 3 -5 1 -12 -5 -16 -7 -4 -10 107 -10 338 0 289 -3 351 -16 390
-18 54 -72 115 -124 143 -34 18 -83 19 -1185 21 -923 2 -1157 0 -1186 -11z
m2783 -932 c6 -6 -46 -89 -61 -99 -5 -3 3 20 18 50 26 53 32 61 43 49z m30
-196 c-8 -8 -9 -4 -5 13 4 13 8 18 11 10 2 -7 -1 -18 -6 -23z m-715 -1934 c-3
-3 -12 -4 -19 -1 -8 3 -5 6 6 6 11 1 17 -2 13 -5z"/>
</g>
</svg>
